<svg xmlns="http://www.w3.org/2000/svg" xmlns:xlink="http://www.w3.org/1999/xlink" aria-hidden="true" role="img" class="iconify iconify--logos" width="31.88" height="32" preserveAspectRatio="xMidYMid meet" viewBox="0 0 256 257"><defs><linearGradient id="IconifyId1813088fe1fbc01fb466" x1="-.828%" x2="57.636%" y1="7.652%" y2="78.411%"><stop offset="0%" stop-color="#41D1FF"></stop><stop offset="100%" stop-color="#BD34FE"></stop></linearGradient><linearGradient id="IconifyId1813088fe1fbc01fb467" x1="43.376%" x2="50.316%" y1="2.242%" y2="89.03%"><stop offset="0%" stop-color="#FFEA83"></stop><stop offset="8.333%" stop-color="#FFDD35"></stop><stop offset="100%" stop-color="#FFA800"></stop></linearGradient></defs><path fill="url(#IconifyId1813088fe1fbc01fb466)" d="M255.153 37.938L134.897 252.976c-2.483 4.44-8.862 4.466-11.382.048L.875 37.958c-2.746-4.814 1.371-10.646 6.827-9.67l120.385 21.517a6.537 6.537 0 0 0 2.322-.004l117.867-21.483c5.438-.991 9.375 4.796 6.875 9.62Z"></path><path fill="url(#IconifyId1813088fe1fbc01fb467)" d="M185.432.063L96.44 17.501a3.268 3.268 0 0 0-2.634 3.014l-5.49 93.305a3.268 3.268 0 0 0 3.997 3.378l24.777-5.718c2.318-.535 4.413 1.507 3.936 3.838l-7.804 33.954c-.495 2.193 1.777 4.006 3.946 3.123l8.242-3.797c2.09-.962 4.258.941 3.697 3.12l-11.12 41.38c-.532 1.98 1.744 3.54 3.538 2.479l1.242-.715c4.247-2.446 8.014.61 7.443 4.479l-6.743 40.239c-.515 3.072 3.39 5.234 5.948 3.483l12.823-8.397c2.213-1.448 5.025.327 4.582 2.971l-7.127 40.111c-.524 2.948 3.111 5.054 5.676 3.405l17.352-10.936c2.443-1.54 5.474.327 5.063 3.363l-7.127 42.721c-.51 3.055 3.445 5.19 6.013 3.44l38.831-23.738c2.54-1.553 5.69.26 5.27 3.404l-7.304 46.915c-.558 3.585 4.15 6.07 6.953 3.708l.425-.354c12.837-10.67 29.04-22.251 29.04-49.267c0-36.338-28.305-61.086-64.306-61.086c-33.541 0-48.74 19.376-57.23 33.892c-1.22 2.067-3.9 2.804-5.982 1.618l-9.215-5.218c-2.625-1.486-5.723.327-6.12 3.405l-5.015 38.95c-.45 3.5 3.445 6.07 6.6 4.479l20.38-10.29c2.09-1.055 4.582.26 5.063 2.971l6.743 33.954c.532 2.68 3.697 4.479 6.36 3.405l15.008-6.24c2.625-1.09 5.69.327 6.12 3.12l5.49 29.05c.495 2.616 3.538 4.479 6.36 3.838l40.239-9.67c3.405-.818 6.6 2.193 5.948 5.585l-7.804 38.95c-.818 4.088 4.15 6.743 7.443 4.479l38.831-26.238c2.54-1.72 5.948.26 6.36 3.405l5.015 33.954c.495 3.354 4.582 5.585 7.804 4.088l40.239-18.794c3.072-1.434 6.6 1.507 5.948 4.8l-7.804 40.239c-.818 4.22 4.582 6.743 8.242 4.479l42.721-26.238c3.354-2.063 7.804.26 8.242 4.479l5.49 46.915c.495 4.22 5.948 6.743 9.67 4.479l55.734-33.892c3.697-2.246 8.242.495 8.242 4.8V8.525c0-4.305-4.545-7.046-8.242-4.8L185.432.063Z"></path></svg>
