<svg width="77" height="32" viewBox="0 0 77 32" fill="none" xmlns="http://www.w3.org/2000/svg">
<g clip-path="url(#clip0_79709_9515)">
<path fill-rule="evenodd" clip-rule="evenodd" d="M0.500398 21.6161V19.3321C1.80144 19.7413 2.95269 19.9459 3.95414 19.9459C5.33681 19.9459 6.02826 19.5807 6.02826 18.8508C6.02826 18.5787 5.92763 18.3501 5.72593 18.165C5.51967 17.9686 4.99139 17.6963 4.14247 17.3476C2.61928 16.7217 1.62603 16.188 1.16403 15.7466C0.565226 15.1639 0.265862 14.4291 0.265862 13.5412C0.265862 12.3977 0.702102 11.5262 1.57397 10.9272C2.43619 10.3335 3.55894 10.037 4.94397 10.037C5.70708 10.037 6.81159 10.1773 8.25627 10.4584V12.6555C7.18133 12.2265 6.18353 12.0124 5.26165 12.0124C3.96349 12.0124 3.31445 12.3686 3.31445 13.0825C3.31445 13.3493 3.44517 13.5669 3.70699 13.7357C3.92473 13.8722 4.52467 14.1606 5.50553 14.6018C6.91784 15.2286 7.85803 15.7733 8.3265 16.2367C8.88236 16.7864 9.16083 17.4976 9.16083 18.3694C9.16083 19.6225 8.61537 20.5783 7.52523 21.2369C6.64203 21.771 5.49679 22.0369 4.09018 22.0369C2.9023 22.0369 1.70545 21.8971 0.500398 21.6161ZM10.9867 10.238H14.2197V21.8033H10.9867V10.238ZM17.1847 21.8033V10.238H25.4767V12.3298H20.3007V14.9413H24.8061V16.8493H20.3007V19.5938H25.61V21.8033H17.1847ZM27.7206 21.8033V10.238H31.9124L34.8247 17.6277L37.8099 10.238H41.7915V21.8033H38.7261V13.6148L35.3317 21.9207H33.3276L29.9985 13.6148V21.8033H27.7206ZM44.7571 21.8033V10.238H53.0489V12.3298H47.8734V14.9413H52.3787V16.8493H47.8734V19.5938H53.1831V21.8033H44.7571ZM55.3105 21.8033V10.238H59.0576L63.033 17.98V10.238H65.3102V21.8033H61.6695L57.5886 13.957V21.8033H55.3105ZM67.6054 21.6161V19.3321C68.8955 19.7413 70.0466 19.9459 71.0598 19.9459C72.4426 19.9459 73.1332 19.5807 73.1332 18.8508C73.1332 18.5787 73.0353 18.3501 72.8403 18.165C72.633 17.9686 72.1025 17.6963 71.2485 17.3476C69.7299 16.7269 68.7356 16.1934 68.2694 15.7466C67.6709 15.1691 67.372 14.4316 67.372 13.5333C67.372 12.3947 67.8072 11.5261 68.68 10.9272C69.5409 10.3335 70.665 10.0369 72.0501 10.0369C72.8289 10.0369 73.838 10.1605 75.0757 10.4087L75.3615 10.4583V12.6554C74.2865 12.2264 73.2858 12.0123 72.3589 12.0123C71.0657 12.0123 70.4207 12.3685 70.4207 13.0824C70.4207 13.3492 70.5507 13.5669 70.8119 13.7356C71.0194 13.8669 71.6217 14.1555 72.619 14.6018C74.0206 15.2285 74.9588 15.7733 75.4314 16.2366C75.9881 16.7863 76.2659 17.4975 76.2659 18.3693C76.2659 19.6224 75.7236 20.5782 74.639 21.2368C73.7506 21.7709 72.6025 22.0369 71.1961 22.0369C70.007 22.0369 68.8096 21.8971 67.6054 21.6161Z" fill="#009999"/>
</g>
<defs>
<clipPath id="clip0_79709_9515">
<rect width="77" height="32" fill="white" transform="translate(0.00170898)"/>
</clipPath>
</defs>
</svg>
